<?xml version="1.0" encoding="UTF-8" standalone="no"?><!DOCTYPE svg PUBLIC "-//W3C//DTD SVG 1.1//EN" "http://www.w3.org/Graphics/SVG/1.1/DTD/svg11.dtd"><svg width="100%" height="100%" viewBox="0 0 800 430" version="1.1" xmlns="http://www.w3.org/2000/svg" xmlns:xlink="http://www.w3.org/1999/xlink" xml:space="preserve" xmlns:serif="http://www.serif.com/" style="fill-rule:evenodd;clip-rule:evenodd;stroke-linejoin:round;stroke-miterlimit:2;"><g><g><g><path d="M190.106,295.061l24.79,-0l0,4.304l-24.79,-0l-0,-4.304Zm0.524,24.178l-4.901,-0l-0,-46.826l32.102,0l0,4.303l-27.201,0l-0,42.523Z" style="fill-rule:nonzero;"/><path d="M247.574,319.667c-3.53,0 -6.796,-0.597 -9.798,-1.792c-3.003,-1.195 -5.611,-2.869 -7.824,-5.022c-2.213,-2.153 -3.935,-4.672 -5.164,-7.558c-1.229,-2.886 -1.844,-6.042 -1.844,-9.469c0,-3.427 0.615,-6.583 1.844,-9.469c1.229,-2.886 2.952,-5.407 5.169,-7.564c2.216,-2.157 4.821,-3.831 7.815,-5.022c2.994,-1.191 6.258,-1.786 9.793,-1.786c3.535,-0 6.796,0.593 9.782,1.779c2.986,1.186 5.585,2.854 7.796,5.003c2.212,2.149 3.932,4.671 5.161,7.565c1.23,2.895 1.845,6.061 1.845,9.498c-0,3.437 -0.615,6.602 -1.845,9.494c-1.229,2.891 -2.949,5.412 -5.161,7.561c-2.211,2.149 -4.81,3.816 -7.796,5.003c-2.986,1.186 -6.244,1.779 -9.773,1.779Zm-0.009,-4.417c2.807,0 5.404,-0.484 7.792,-1.451c2.388,-0.967 4.467,-2.331 6.239,-4.091c1.771,-1.76 3.15,-3.816 4.136,-6.167c0.985,-2.352 1.478,-4.928 1.478,-7.727c0,-2.799 -0.491,-5.369 -1.474,-7.711c-0.983,-2.342 -2.361,-4.394 -4.133,-6.155c-1.773,-1.762 -3.854,-3.127 -6.243,-4.095c-2.39,-0.967 -4.988,-1.451 -7.795,-1.451c-2.806,-0 -5.407,0.484 -7.803,1.453c-2.395,0.969 -4.481,2.335 -6.258,4.098c-1.778,1.763 -3.159,3.816 -4.144,6.16c-0.985,2.344 -1.477,4.911 -1.477,7.7c0,2.79 0.492,5.36 1.476,7.712c0.984,2.352 2.363,4.413 4.138,6.182c1.775,1.769 3.862,3.135 6.261,4.098c2.398,0.963 5.001,1.445 7.807,1.445Z" style="fill-rule:nonzero;"/><path d="M291.495,319.239l-0,-42.523l-16.483,0l-0,-4.303l37.865,0l0,4.303l-16.481,0l-0,42.523l-4.901,-0Z" style="fill-rule:nonzero;"/><path d="M338.816,319.667c-3.529,0 -6.795,-0.597 -9.797,-1.792c-3.003,-1.195 -5.611,-2.869 -7.824,-5.022c-2.214,-2.153 -3.935,-4.672 -5.164,-7.558c-1.229,-2.886 -1.844,-6.042 -1.844,-9.469c0,-3.427 0.615,-6.583 1.844,-9.469c1.229,-2.886 2.952,-5.407 5.168,-7.564c2.217,-2.157 4.822,-3.831 7.816,-5.022c2.994,-1.191 6.258,-1.786 9.793,-1.786c3.535,-0 6.796,0.593 9.782,1.779c2.986,1.186 5.585,2.854 7.796,5.003c2.211,2.149 3.932,4.671 5.161,7.565c1.23,2.895 1.844,6.061 1.844,9.498c0,3.437 -0.614,6.602 -1.844,9.494c-1.229,2.891 -2.95,5.412 -5.161,7.561c-2.211,2.149 -4.81,3.816 -7.796,5.003c-2.986,1.186 -6.244,1.779 -9.774,1.779Zm-0.008,-4.417c2.807,0 5.404,-0.484 7.792,-1.451c2.387,-0.967 4.467,-2.331 6.239,-4.091c1.771,-1.76 3.15,-3.816 4.135,-6.167c0.986,-2.352 1.479,-4.928 1.479,-7.727c-0,-2.799 -0.492,-5.369 -1.474,-7.711c-0.983,-2.342 -2.361,-4.394 -4.134,-6.155c-1.772,-1.762 -3.853,-3.127 -6.243,-4.095c-2.389,-0.967 -4.987,-1.451 -7.794,-1.451c-2.807,-0 -5.408,0.484 -7.803,1.453c-2.395,0.969 -4.481,2.335 -6.259,4.098c-1.777,1.763 -3.158,3.816 -4.143,6.16c-0.985,2.344 -1.477,4.911 -1.477,7.7c-0,2.79 0.492,5.36 1.476,7.712c0.983,2.352 2.363,4.413 4.138,6.182c1.775,1.769 3.862,3.135 6.26,4.098c2.399,0.963 5.001,1.445 7.808,1.445Z" style="fill-rule:nonzero;"/><path d="M394.818,319.667c-3.555,0 -6.835,-0.591 -9.841,-1.773c-3.007,-1.181 -5.621,-2.849 -7.845,-5.002c-2.223,-2.154 -3.949,-4.677 -5.178,-7.568c-1.229,-2.892 -1.844,-6.058 -1.844,-9.498c0,-3.44 0.615,-6.606 1.844,-9.498c1.229,-2.892 2.961,-5.414 5.197,-7.568c2.236,-2.153 4.857,-3.821 7.863,-5.003c3.007,-1.182 6.3,-1.772 9.88,-1.772c3.545,-0 6.806,0.566 9.783,1.699c2.976,1.133 5.519,2.829 7.627,5.088l-3.077,3.136c-1.989,-1.951 -4.159,-3.356 -6.508,-4.216c-2.349,-0.86 -4.894,-1.29 -7.636,-1.29c-2.876,-0 -5.537,0.486 -7.984,1.459c-2.446,0.973 -4.573,2.335 -6.381,4.087c-1.808,1.751 -3.205,3.805 -4.191,6.162c-0.985,2.357 -1.478,4.929 -1.478,7.716c-0,2.762 0.493,5.322 1.478,7.678c0.986,2.357 2.383,4.418 4.191,6.181c1.808,1.764 3.929,3.132 6.363,4.105c2.433,0.973 5.088,1.46 7.965,1.46c2.639,0 5.156,-0.408 7.55,-1.224c2.395,-0.817 4.592,-2.175 6.592,-4.074l2.812,3.732c-2.209,1.982 -4.814,3.475 -7.816,4.478c-3.002,1.003 -6.124,1.505 -9.366,1.505Zm12.462,-6.551l-0,-17.314l4.72,-0l0,17.882l-4.72,-0.568Z" style="fill-rule:nonzero;"/><path d="M426.077,319.239l-0,-46.826l17.484,0c3.987,0 7.408,0.639 10.265,1.915c2.856,1.277 5.052,3.11 6.587,5.498c1.534,2.388 2.302,5.26 2.302,8.618c-0,3.311 -0.768,6.16 -2.302,8.545c-1.535,2.384 -3.731,4.215 -6.587,5.492c-2.857,1.277 -6.278,1.916 -10.265,1.916l-14.777,-0l2.194,-2.27l-0,17.112l-4.901,-0Zm31.957,-0l-12.051,-16.991l5.387,-0l12.089,16.991l-5.425,-0Zm-27.056,-16.714l-2.194,-2.355l14.683,-0c4.677,-0 8.231,-1.029 10.662,-3.087c2.432,-2.058 3.647,-4.938 3.647,-8.639c0,-3.747 -1.215,-6.638 -3.647,-8.674c-2.431,-2.036 -5.985,-3.054 -10.662,-3.054l-14.683,0l2.194,-2.392l-0,28.201Z" style="fill-rule:nonzero;"/><path d="M466.474,319.239l21.399,-46.826l4.863,0l21.438,46.826l-5.216,-0l-19.689,-43.975l2.033,0l-19.688,43.975l-5.14,-0Zm8.409,-12.485l1.464,-4.038l27.242,-0l1.503,4.038l-30.209,-0Z" style="fill-rule:nonzero;"/><path d="M524.373,295.061l24.79,-0l0,4.304l-24.79,-0l-0,-4.304Zm0.523,24.178l-4.901,-0l0,-46.826l32.103,0l0,4.303l-27.202,0l0,42.523Z" style="fill-rule:nonzero;"/><rect x="562.071" y="272.413" width="4.901" height="46.825" style="fill-rule:nonzero;"/><path d="M585.618,293.344l24.753,0l-0,4.227l-24.753,0l-0,-4.227Zm0.486,21.591l28.167,0l0,4.304l-33.068,-0l0,-46.826l32.103,0l-0,4.303l-27.202,0l-0,38.219Z" style="fill-rule:nonzero;"/></g><path d="M265.435,185.624c-0.356,-0.045 -5.853,-0.772 -7.773,-2.042c-1.984,-1.314 -3.94,-3.463 -4.114,-5.837c-0.175,-2.385 1.169,-6.143 3.062,-8.475c2.225,-2.742 7.707,-6.331 10.286,-7.976c1.552,-0.99 3.363,-1.646 5.187,-1.892c1.962,-0.265 4.758,-0.265 6.587,0.304c1.711,0.532 3.378,1.628 4.386,3.109c1.026,1.509 1.975,3.884 1.772,5.941c-0.216,2.192 -1.586,5.06 -3.069,7.21c-0.861,1.248 -2.018,2.827 -3.343,4.522c0.338,0.024 1.135,0.082 1.584,0.12c1.842,0.157 6.558,0.344 9.308,0.81c2.452,0.415 4.921,0.972 7.192,1.987c2.693,1.203 7.437,6.133 8.969,5.236c1.395,-0.818 -0.503,-7.666 0.001,-10.057c-0.012,-0.006 -0.019,-0.009 -0.019,-0.009c0,-0 0.016,-0.037 0.045,-0.103c0.048,-0.184 0.112,-0.337 0.196,-0.453c0.005,-0.006 0.009,-0.012 0.014,-0.018c0.447,-0.984 1.397,-2.963 2.148,-3.78c0.982,-1.068 2.364,-1.732 3.705,-2.287c4.961,-2.051 18.854,-6.95 26.059,-10.021c5.863,-2.5 11.504,-5.493 17.171,-8.408c5.825,-2.996 12.841,-4.996 17.777,-9.569c5.514,-5.107 9.636,-14.5 15.304,-21.077c6.494,-7.536 16.889,-18.391 23.661,-24.137c5.051,-4.286 13.402,-8.574 16.97,-10.339c1.329,-0.657 2.987,-0.54 4.441,-0.25c1.59,0.316 3.912,0.926 5.099,2.149c1.187,1.222 2.076,3.33 2.022,5.185c-0.06,2.052 -0.868,5.133 -2.382,7.129c-2.925,3.857 -9.703,11.098 -15.172,16.014c-5.643,5.072 -12.182,9.989 -18.683,14.416c-3.136,2.136 -9.205,6.386 -13.051,8.761c-5.317,3.282 -8.524,4.69 -13.091,7.35c-0.258,0.151 -0.518,0.302 -0.78,0.453c-0.816,1.706 -5.455,11.428 -6.966,15.08c-1.171,2.828 -2.504,5.958 -2.869,8.721c-0.344,2.606 -0.144,6.015 0.678,7.858c0.722,1.62 2.557,2.678 4.253,3.201c1.735,0.534 4.317,0.282 6.157,0.008c1.699,-0.253 3.297,-0.992 4.882,-1.654c2.219,-0.926 5.866,-2.165 8.429,-3.9c4.596,-3.112 14.941,-11.438 19.148,-14.771c2.097,-1.662 4.59,-4.341 6.093,-5.227c0.841,-0.495 2.064,-0.533 2.927,-0.087c0.863,0.445 2.474,1.594 2.252,2.76c-0.326,1.714 -3.075,4.882 -4.21,7.522c-1.267,2.948 -2.932,7.273 -3.392,10.167c-0.377,2.379 -0.367,5.393 0.637,7.198c1.003,1.804 3.321,2.975 5.384,3.63c2.198,0.699 5.888,0.645 7.805,0.561c1.28,-0.056 2.513,-0.568 3.695,-1.062c2.765,-1.156 9.326,-3.945 12.896,-5.873c3.006,-1.623 5.793,-3.64 8.524,-5.693c3.435,-2.582 8.63,-7.196 12.083,-9.799c2.772,-2.089 6.783,-5.469 8.638,-5.819c1.467,-0.276 2.439,2.231 2.49,3.723c0.067,1.979 -2.558,7.605 -2.086,8.155c0.473,0.549 2.964,-3.638 4.92,-4.856c2.221,-1.384 5.544,-3.725 8.405,-3.443c2.86,0.283 5.955,3.241 8.759,5.136c3.078,2.08 5.858,6.065 9.709,7.344c4.038,1.34 9.721,1.376 14.518,0.7c5.341,-0.754 12.19,-3.112 17.525,-5.219c5.047,-1.993 9.886,-4.545 14.486,-7.422c4.528,-2.832 10.437,-8.716 13.882,-10.447c2.735,-2.319 9.916,-8.523 12.538,-11.913c2.832,-3.661 4.079,-8.312 5.989,-12.529c2.979,-6.58 9.064,-20.558 11.886,-26.954c1.68,-3.808 3.516,-8.21 5.045,-11.421c1.27,-2.668 3.028,-6.375 4.127,-7.847c0.531,-0.71 1.65,-1.32 2.471,-0.985c1.069,0.435 3.656,1.843 3.94,3.598c0.36,2.232 -0.71,6.652 -1.778,9.792c-2.169,6.378 -7.066,20.471 -11.237,28.475c-3.685,7.071 -10.777,15.365 -13.788,19.548c-1.364,1.896 -3.206,3.476 -4.278,5.551c-1.699,3.289 -4.207,9.709 -5.917,14.184c-1.594,4.17 -4.673,11.922 -4.343,12.669c0.33,0.746 4.865,-6.372 6.322,-8.19c0.758,-0.946 2.155,-1.534 2.418,-2.718c0.299,-1.344 -1.145,-3.63 -0.627,-5.349c0.658,-2.188 2.769,-6.392 4.577,-7.776c1.667,-1.275 4.432,-0.82 6.275,-0.526c0.024,0.004 0.048,0.008 0.072,0.012c0.002,-0.004 0.004,-0.007 0.006,-0.011c1.514,-2.677 9.589,-9.791 13.92,-13.327c3.721,-3.038 8.081,-5.883 12.063,-7.888c3.731,-1.878 8.184,-3.507 11.828,-4.138c3.298,-0.571 7.227,-0.427 10.035,0.351c2.591,0.717 5.161,2.195 6.815,4.315c1.701,2.18 4.211,5.742 3.388,8.763c-0.608,2.236 -1.076,5.663 -2.868,9.135c-2.031,3.936 -5.516,7.951 -8.307,10.724c-5.254,5.22 -14.145,8.84 -20.35,11.46c-0.249,0.105 -0.501,0.209 -0.756,0.312c0.507,0.404 1.923,1.5 2.831,1.871c3.358,1.371 11.2,4.896 17.13,6.201c6.084,1.338 15.044,1.768 19.368,1.831c2.246,0.032 5.399,-0.446 6.581,-1.454c1.172,-0.999 -0.11,-3.183 0.513,-4.592c0.946,-2.143 3.212,-5.667 5.164,-8.262c2.403,-3.195 6.328,-8.058 9.253,-10.907c2.47,-2.406 5.111,-4.854 8.292,-6.187c3.25,-1.362 8.681,-2.621 11.207,-1.984c2.272,0.574 3.44,3.989 3.954,5.81c0.469,1.666 -0.206,3.52 -0.873,5.117c-0.972,2.326 -4.325,7.415 -4.956,8.84c-0.163,0.367 0.836,-0.068 1.17,-0.293c1.799,-1.208 7.34,-5.799 9.625,-6.961c1.213,-0.617 2.882,-0.65 4.084,-0.011c1.316,0.699 3.074,2.462 3.809,4.205c0.791,1.875 0.146,4.814 0.937,7.048c1.135,3.202 2.606,9.065 5.871,12.165c3.38,3.211 9.805,6.446 14.409,7.097c1.88,0.265 10.805,0.538 12.35,0.412c2.99,-0.245 5.975,-0.725 8.831,-1.618c2.135,-0.669 5.336,-1.636 7.93,-2.785c1.61,-0.713 10.195,-3.46 12.092,-3.138c1.457,0.247 2.663,1.636 3.289,2.976c0.644,1.377 -0.27,5.742 -1.614,6.899c-2.603,2.242 -8.295,4.147 -14.084,5.883c-5.854,1.756 -12.51,3.448 -18.859,3.044c-6.744,-0.429 -16.142,-2.574 -21.524,-4.953c-4.34,-1.919 -8.242,-5.3 -10.763,-9.321c-1.099,-1.753 -3.083,-4.419 -3.893,-7.245c-1.304,-4.554 -1.287,-9.433 -2.562,-10.899c-1.554,-1.787 -3.946,2.618 -5.945,3.887c-3.248,2.061 -8.888,6.207 -13.547,8.481c-4.585,2.237 -11.02,4.7 -14.407,5.163c-2.107,0.287 -3.791,-2.312 -5.916,-2.387c-4.261,-0.151 -13.091,1.8 -19.652,1.481c-6.754,-0.328 -14.535,-1.304 -20.868,-3.449c-6.173,-2.091 -17.132,-9.421 -17.132,-9.421c-3.001,0.756 -5.91,1.263 -8.223,1.405c-3.651,0.225 -7.706,-1.403 -10.67,-2.567c-1.792,-0.704 -4.496,-2.538 -6.002,-3.609c-1.43,2.135 -3.271,5.191 -4.925,7.362c-1.612,2.117 -3.708,4.291 -5.274,5.995c-1.332,1.45 -3.055,3.42 -4.122,4.231c-0.629,0.478 -1.57,0.975 -2.283,0.634c-0.849,-0.406 -2.6,-1.698 -2.814,-3.069c-0.268,-1.723 0.535,-4.903 1.203,-7.265c0.754,-2.67 2.209,-5.84 3.325,-8.756c1.263,-3.3 4.062,-9.347 4.252,-11.044c0.011,-0.093 0.003,-0.161 -0.02,-0.208c-0.019,0.095 -0.05,0.19 -0.093,0.284c-0.904,1.976 -7.125,5.857 -10.658,8.308c-3.378,2.343 -6.865,4.56 -10.543,6.398c-5.007,2.502 -13.491,6.805 -19.5,8.613c-5.332,1.604 -12.603,1.89 -16.554,2.233c-2.375,0.207 -5.005,0.222 -7.151,-0.17c-2.009,-0.368 -4.233,-1.505 -5.725,-2.187c-1.136,-0.519 -2.232,-1.151 -3.227,-1.907c-1.12,-0.851 -2.368,-2.091 -3.494,-3.197c-1.227,-1.205 -2.481,-2.944 -3.866,-4.029c-1.336,-1.046 -2.848,-2.486 -4.446,-2.479c-1.598,0.007 -3.568,1.439 -5.142,2.519c-1.845,1.265 -4.119,3.203 -5.926,5.072c-1.979,2.047 -4,4.926 -5.947,7.208c-1.872,2.195 -4.387,5.532 -5.734,6.484c-0.672,0.475 -1.964,-0.042 -2.344,-0.772c-0.432,-0.831 -0.69,-2.876 -0.25,-4.213c0.996,-3.033 6.157,-12.528 6.229,-13.987c0.073,-1.459 -3.777,3.589 -5.795,5.232c-2.829,2.303 -7.13,6.197 -11.175,8.584c-4.663,2.75 -11.781,6.306 -16.802,7.92c-4.265,1.371 -9.99,2.015 -13.324,1.763c-2.471,-0.187 -4.749,-1.714 -6.677,-3.272c-2.139,-1.729 -5.092,-4.314 -6.155,-7.098c-1.063,-2.784 1.316,-9.054 -0.224,-9.608c-1.54,-0.554 -5.867,4.411 -9.014,6.285c-3.746,2.23 -8.934,5.508 -13.46,7.098c-4.376,1.536 -9.97,2.796 -13.697,2.44c-3.251,-0.31 -6.668,-2.668 -8.664,-4.576c-1.838,-1.758 -3.001,-4.35 -3.312,-6.875c-0.38,-3.095 0.141,-7.884 1.028,-11.696c0.95,-4.086 4.611,-13.051 4.865,-13.67c-3.3,1.765 -6.471,3.411 -9.187,4.779c-4.837,2.436 -9.819,4.58 -14.811,6.678c-5.128,2.155 -11.952,4.56 -15.954,6.251c-2.747,1.161 -5.782,2.858 -8.057,3.892c-1.836,0.835 -5.231,1.008 -5.59,2.315c-0.006,0.022 -0.013,0.043 -0.02,0.064c-0.177,1.026 -0.586,3.623 -0.488,5.08c0.205,3.045 1.068,10.058 1.791,12.76c0.369,1.381 1.92,2.166 2.548,3.45c0.627,1.283 1.656,3.021 1.217,4.25c-0.438,1.23 -2.603,3.048 -3.847,3.127c-1.245,0.078 -2.761,-1.428 -3.618,-2.654c-0.9,-1.29 -0.721,-3.636 -1.785,-5.082c-1.688,-2.294 -5.181,-6.308 -8.339,-8.679c-3.158,-2.37 -6.742,-4.558 -10.609,-5.544c-4.083,-1.042 -14.054,-0.95 -14.782,-0.942c-1.178,1.329 -2.38,2.603 -3.547,3.725c-4.127,3.967 -8.946,7.295 -13.71,10.54c-4.126,2.811 -12.265,7.452 -14.374,8.647c-1.297,1.073 -4.822,1.797 -7.11,2.299c-3.259,0.716 -8.704,1.387 -12.04,1.527c-2.665,0.112 -5.635,-0.064 -7.972,-0.684c-2.182,-0.579 -4.351,-1.555 -6.053,-3.039c-2.033,-1.771 -4.949,-4.564 -6.146,-7.592c-1.285,-3.251 -1.435,-7.913 -1.565,-11.912c-0.098,-3.032 0.406,-8.412 0.656,-10.837c-0.017,-1.625 0.786,-4.146 0.926,-6.046c0.096,-1.294 0.454,-3.084 0.482,-4.725c0.034,-1.95 0.241,-3.868 0.134,-5.029c-0.105,-1.145 -0.698,-2.584 -1.275,-3.206c-0.509,-0.548 -1.451,-0.678 -2.184,-0.523c-1.065,0.225 -2.886,1.096 -4.21,1.874c-1.882,1.106 -4.809,3.048 -7.079,4.759c-2.786,2.1 -6.683,5.298 -9.636,7.839c-2.771,2.384 -5.575,5.009 -8.082,7.411c-2.046,1.959 -5.728,5.729 -6.716,6.743c-1.636,2.077 -6.076,5.097 -8.752,7.107c-2.886,2.169 -6.88,4.87 -9.106,5.866c-1.293,0.579 -3.171,0.269 -4.248,0.111c-0.81,-0.119 -1.754,-0.385 -2.214,-1.061c-0.682,-1.002 -1.762,-3.369 -1.875,-4.948c-0.112,-1.556 0.751,-3.029 1.196,-4.525c0.637,-2.142 2.553,-8.253 3.268,-10.53c0.263,-1.434 1.587,-3.662 2.239,-5.303c0.871,-2.19 2.148,-4.804 3,-6.964c0.777,-1.972 1.289,-4.044 2.109,-5.998c0.868,-2.071 2.257,-4.434 3.101,-6.428c0.763,-1.802 1.195,-3.734 1.962,-5.534c0.985,-2.313 2.744,-5.658 3.948,-8.342c1.15,-2.563 2.185,-5.176 3.277,-7.764c1.204,-2.855 4.032,-9.573 4.344,-10.313c0.619,-2.213 2.667,-6.021 3.621,-8.577c1.06,-2.841 2.325,-6.437 2.998,-8.587c0.443,-1.412 1.127,-3.805 1.043,-4.314c-0.083,-0.51 -1.14,0.731 -1.545,1.257c-0.793,1.031 -2.126,3.295 -3.215,4.925c-1.217,1.819 -2.704,4.008 -4.085,5.992c-2.071,2.974 -6.369,9.152 -8.343,11.856c-1.1,1.506 -2.737,3.39 -3.504,4.363c-0.244,0.309 -0.627,0.83 -0.87,1.163c-5.232,8.869 -24.369,36.709 -33.174,49.213c-6.355,9.025 -12.513,18.294 -20.066,26.344c-5.479,5.839 -13.301,15.566 -22.565,25.322c-5.274,5.553 -11.518,10.932 -16.805,16.068c-8.179,7.944 -18.594,16.363 -20.867,18.15c-2.58,2.03 -12.548,5.59 -16.561,6.114c-2.671,0.348 -5.735,-1.222 -7.515,-2.972c-1.78,-1.749 -3.093,-4.805 -3.165,-7.525c-0.106,-4.019 1.234,-12.487 2.528,-16.588c0.96,-3.044 3.972,-6.526 5.235,-8.017c0.543,-0.642 2.629,-1.723 2.342,-0.932c-0.559,1.542 -4.411,6.52 -5.701,10.189c-1.29,3.67 -1.836,8.737 -2.038,11.828c-0.147,2.251 0.017,5.047 0.826,6.717c0.758,1.563 2.388,2.737 4.03,3.303c1.739,0.6 4.304,0.691 6.403,0.292c2.487,-0.473 5.853,-1.703 8.521,-3.13c3.119,-1.668 7.054,-4.242 10.192,-6.878c4.993,-4.195 14.732,-13.487 19.766,-18.288c3.574,-3.409 7.371,-7.319 10.437,-10.518c2.715,-2.832 5.368,-5.725 7.957,-8.673c2.992,-3.408 6.765,-7.764 9.998,-11.77c3.33,-4.127 6.699,-8.629 9.984,-12.992c4.097,-5.441 10.441,-13.747 14.595,-19.657c3.617,-5.147 7.342,-11.343 10.324,-15.801c2.466,-3.687 5.043,-7.299 7.565,-10.948c3.67,-5.308 11.467,-17.711 14.454,-20.9c0,0 2.829,-3.954 4.259,-5.921c2.448,-3.365 7.707,-10.431 10.426,-14.271c2.035,-2.874 4.389,-6.63 5.89,-8.77c0.981,-1.4 2.269,-3.087 3.113,-4.074c0.581,-0.681 1.165,-1.535 1.948,-1.85c0.784,-0.314 2.155,-0.333 2.752,-0.035c0.596,0.298 0.771,1.16 0.829,1.826c0.116,1.331 0.272,4.148 -0.133,6.163c-0.478,2.375 -1.78,5.404 -2.733,8.085c-1.307,3.678 -3.696,11.921 -5.262,14.669c-0.308,0.737 -1.238,2.969 -1.646,3.989c-0.42,1.049 -0.777,2.123 -1.213,3.164c-0.707,1.686 -2.002,4.64 -3.029,6.949c-1.029,2.313 -2.13,4.604 -3.146,6.929c-1.041,2.381 -2.064,4.906 -3.1,7.357c-1.062,2.51 -2.217,5.121 -3.27,7.704c-1.075,2.636 -2.165,5.39 -3.178,8.111c-1.106,2.969 -2.516,8.729 -3.874,11.483c-0.362,0.917 -1.101,2.801 -1.483,3.902c-0.605,1.742 -1.602,4.412 -1.935,6.018c-0.246,1.182 -0.329,3.084 -0.067,3.62c0.247,0.505 1.141,-0.143 1.638,-0.407c0.782,-0.417 2.074,-1.345 3.056,-2.094c1.073,-0.817 2.246,-1.88 3.377,-2.81c1.405,-1.155 3.717,-3.093 5.048,-4.116c0.638,-0.491 1.236,-1.398 1.909,-1.83c1.757,-1.559 8.849,-7.852 12.235,-10.853c3.551,-3.148 7.644,-7.048 10.657,-9.439c2.324,-1.844 5.057,-3.42 7.422,-4.908c2.221,-1.397 4.904,-3.181 6.77,-4.02c1.38,-0.62 2.934,-1.086 4.426,-1.014c1.492,0.073 3.248,0.513 4.526,1.449c1.282,0.938 2.853,2.461 3.164,4.18c0.196,1.086 0.858,2.89 0.94,4.781c0.171,3.926 -0.396,8.652 -0.476,11.082c-0.046,1.378 -0.038,3.202 -0.437,4.486c-0.47,2.439 -1.669,9.037 -1.535,12.308c0.156,3.809 1.343,8.659 2.716,11.11c1.074,1.916 3.517,2.757 5.523,3.594c2.006,0.838 4.292,1.353 6.514,1.431c2.342,0.083 5.069,-0.372 7.536,-0.937c2.077,-0.475 5.09,-2.028 7.426,-2.717c2.102,-1.101 17.069,-8.954 21.453,-11.664c2.475,-1.53 4.483,-3.717 6.608,-5.705c-0.004,-0.002 -0.009,-0.004 -0.013,-0.007Zm6.292,-6.138c0.012,-0.013 0.024,-0.025 0.036,-0.038c0.454,-0.479 0.883,-0.946 1.275,-1.391c1.83,-2.076 4.096,-4.742 4.956,-6.659c0.662,-1.474 0.661,-3.835 0.207,-4.843c-0.434,-0.963 -1.878,-1.27 -2.932,-1.201c-1.62,0.106 -4.733,0.706 -6.785,1.838c-2.326,1.285 -5.751,4.091 -7.176,5.867c-1.039,1.295 -2.461,3.726 -1.373,4.788c1.087,1.063 5.911,1.476 7.899,1.585c1.339,0.073 3.929,0.016 3.929,0.016c0,-0 -0.016,0.014 -0.045,0.04c0.003,-0.001 0.006,-0.001 0.009,-0.002Zm323.366,-23.062c2.05,1.015 6.276,6.029 9.911,9.578c1.951,1.906 3.239,3.374 5.495,3.395c6.457,0.06 18.031,-8.397 23.336,-12.612c3.984,-3.165 7.224,-9.514 8.499,-12.681c0.793,-1.972 0.189,-4.575 -0.852,-6.321c-1.042,-1.745 -3.14,-3.919 -5.398,-4.152c-3.187,-0.33 -9.593,0.821 -13.727,2.176c-3.983,1.306 -7.642,3.638 -11.076,5.955c-3.428,2.312 -6.921,5.655 -9.528,7.942c-2.109,1.849 -5.006,4.656 -6.116,5.776c-0.255,0.258 -0.199,1.059 -0.544,0.944Zm-0,0c-0.053,-0.026 -0.107,-0.048 -0.162,-0.066c-0.002,0.005 -0.003,0.011 -0.005,0.016c0.065,0.018 0.121,0.035 0.167,0.05Zm-3.815,3.896c-1.295,1.589 -2.972,3.664 -4.244,5.37c-0.139,0.186 -0.277,0.373 -0.414,0.561c1.484,1.04 5.549,3.809 7.693,4.485c2.439,0.77 8.188,1.898 7.672,0.143c-0.508,-1.729 -9.34,-8.065 -10.707,-10.559Zm-203.53,-25.93c-0.84,1.443 3.009,-1.461 4.423,-2.348c2.185,-1.37 5.864,-3.806 8.681,-5.872c3.109,-2.278 6.77,-5.05 9.971,-7.8c3.615,-3.106 8.289,-7.324 11.72,-10.832c3.152,-3.225 7.408,-8.273 8.864,-10.222c0.295,-0.394 0.351,-1.581 -0.13,-1.472c-1.381,0.315 -5.681,1.776 -8.16,3.36c-3.661,2.34 -9.708,7.03 -13.803,10.675c-3.867,3.443 -7.347,7.309 -10.767,11.196c-3.594,4.085 -9.737,11.487 -10.799,13.315Zm281.705,44.9c-0.02,1.067 2.184,-0.276 3.158,-0.746c1.639,-0.791 4.62,-2.42 6.676,-4.002c2.343,-1.803 5.146,-4.323 7.385,-6.814c2.293,-2.552 5.438,-6.488 6.373,-8.496c0.511,-1.096 0.232,-3.274 -0.76,-3.547c-0.993,-0.273 -3.625,0.94 -5.193,1.91c-1.97,1.22 -4.624,3.379 -6.628,5.408c-2.393,2.424 -5.898,6.421 -7.733,9.136c-1.469,2.172 -3.258,6.083 -3.278,7.151Zm-65.523,-77.704c-0.642,0.485 -3.106,5.124 -4.435,7.805c-1.518,3.064 -3.605,7.954 -4.676,10.576c-0.687,1.681 -2.447,5.794 -1.749,5.158c0.699,-0.636 4.229,-5.866 5.941,-8.974c1.706,-3.094 3.516,-7.244 4.336,-9.672c0.525,-1.556 1.225,-5.379 0.583,-4.893Zm-170.395,34.126c0.451,-0.482 1.352,-0.741 1.882,-0.793c0.458,-0.046 0.992,0.132 1.297,0.477c0.432,0.488 1.508,1.614 1.296,2.453c-0.213,0.838 -1.688,2.584 -2.571,2.578c-0.458,-0.003 -1.479,-0.04 -2.025,-0.622c-0.508,-0.54 -0.553,-1.613 -0.706,-1.992c-0.281,-0.698 0.375,-1.618 0.827,-2.101Z"/></g></g></svg>